{
	"asset":{
		"generator":"Khronos glTF Blender I/O v4.1.63",
		"version":"2.0"
	},
	"scene":0,
	"scenes":[
		{
			"name":"Scene",
			"nodes":[
				0
			]
		}
	],
	"nodes":[
		{
			"mesh":0,
			"name":"Mesh"
		}
	],
	"materials":[
		{
			"doubleSided":true,
			"name":"Material.001",
			"pbrMetallicRoughness":{
				"baseColorFactor":[
					0.09956616908311844,
					0.8035593032836914,
					0.0345727913081646,
					1
				],
				"metallicFactor":0,
				"roughnessFactor":0.5
			}
		}
	],
	"meshes":[
		{
			"name":"Mesh.002",
			"primitives":[
				{
					"attributes":{
						"POSITION":0,
						"NORMAL":1,
						"TEXCOORD_0":2
					},
					"indices":3,
					"material":0
				}
			]
		}
	],
	"accessors":[
		{
			"bufferView":0,
			"componentType":5126,
			"count":159986,
			"max":[
				3.257603645324707,
				0.5684395432472229,
				3.269869565963745
			],
			"min":[
				-3.271545886993408,
				-0.009575281292200089,
				-3.285644292831421
			],
			"type":"VEC3"
		},
		{
			"bufferView":1,
			"componentType":5126,
			"count":159986,
			"type":"VEC3"
		},
		{
			"bufferView":2,
			"componentType":5126,
			"count":159986,
			"type":"VEC2"
		},
		{
			"bufferView":3,
			"componentType":5125,
			"count":240000,
			"type":"SCALAR"
		}
	],
	"bufferViews":[
		{
			"buffer":0,
			"byteLength":1919832,
			"byteOffset":0,
			"target":34962
		},
		{
			"buffer":0,
			"byteLength":1919832,
			"byteOffset":1919832,
			"target":34962
		},
		{
			"buffer":0,
			"byteLength":1279888,
			"byteOffset":3839664,
			"target":34962
		},
		{
			"buffer":0,
			"byteLength":960000,
			"byteOffset":5119552,
			"target":34963
		}
	],
	"buffers":[
		{
			"byteLength":6079552,
			"uri":"Grass.bin"
		}
	]
}
